<svg width="205" height="50" viewBox="0 0 205 50" fill="none" xmlns="http://www.w3.org/2000/svg">
<g clip-path="url(#clip0_391_4818)">
<path d="M21.6621 0H26.7333L49.352 50H41.9556L35.2369 35.2689H13.721L7.41853 50H0L21.6621 0ZM32.2916 28.9338L24.1556 10.9282L16.6264 28.9338H32.2916Z" fill="#F3F5FC"/>
<path d="M94.9707 0.288162H101.72V50H94.4702V11.3168L78.9688 30.5274H77.6401L61.9571 11.3168V50H54.7246V0.288162H61.5629L78.3177 20.7038L94.9707 0.288162Z" fill="#F3F5FC"/>
<path d="M112.199 50V0.227028H128.188C133.004 0.227028 136.842 1.50919 139.703 4.07352C142.564 6.63784 143.996 10.0768 143.999 14.3905C144.047 17.1127 143.277 19.7879 141.785 22.0791C140.348 24.2865 138.237 25.9867 135.757 26.9342C133.206 27.9413 129.548 28.4463 124.782 28.4492H119.454V50.0131L112.199 50ZM126.926 6.54907H119.454V22.1009H127.36C130.295 22.1009 132.556 21.4184 134.145 20.0533C135.733 18.6881 136.528 16.738 136.528 14.2028C136.528 9.1003 133.327 6.54907 126.926 6.54907Z" fill="#F3F5FC"/>
<path d="M204.901 0.283791H154.469V50H204.901V0.283791Z" fill="#0086FF"/>
<path d="M184.32 23.7906V5.09955H190.326C192.133 5.09955 193.574 5.57982 194.649 6.54035C195.186 7.03088 195.609 7.63107 195.888 8.29915C196.166 8.96723 196.293 9.68712 196.261 10.4087C196.28 11.4302 195.992 12.4346 195.433 13.2946C194.894 14.1233 194.101 14.7611 193.169 15.1153C191.843 15.552 190.447 15.7458 189.05 15.6872H187.044V23.7819L184.32 23.7906ZM189.848 7.47468H187.044V13.3165H190.012C190.928 13.3746 191.835 13.1014 192.563 12.548C192.864 12.2707 193.1 11.9313 193.253 11.554C193.406 11.1767 193.473 10.7707 193.448 10.365C193.451 8.44103 192.251 7.47759 189.848 7.47468Z" fill="#EDFBFF"/>
<path d="M171.649 15.7571L169.589 14.5215C168.527 13.9402 167.589 13.1601 166.83 12.2249C166.279 11.4611 165.991 10.5426 166.011 9.60531C165.987 8.93307 166.114 8.26399 166.382 7.64535C166.65 7.02671 167.052 6.47361 167.561 6.02515C168.68 5.07902 170.122 4.58743 171.595 4.64985C173.146 4.64112 174.663 5.09797 175.945 5.95966V8.99407C174.581 7.70172 173.113 7.05554 171.542 7.05554C170.768 7.02335 170.004 7.23433 169.359 7.65806C169.09 7.82544 168.87 8.05768 168.718 8.33277C168.566 8.60785 168.488 8.91663 168.491 9.22983C168.499 9.8118 168.723 10.3707 169.12 10.8016C169.705 11.4186 170.389 11.9376 171.144 12.3385L173.212 13.5479C175.524 14.9072 176.68 16.6376 176.68 18.7391C176.705 19.4198 176.582 20.098 176.318 20.7277C176.054 21.3574 175.657 21.924 175.152 22.3891C174.062 23.3545 172.63 23.858 171.166 23.7906C169.318 23.7975 167.521 23.2002 166.055 22.0922V18.7042C167.531 20.5321 169.226 21.4475 171.139 21.4504C171.909 21.4761 172.663 21.2264 173.261 20.7475C173.528 20.5401 173.744 20.2746 173.891 19.9717C174.038 19.6688 174.111 19.3367 174.107 19.001C174.13 17.8571 173.311 16.7758 171.649 15.7571Z" fill="#EDFBFF"/>
<path d="M171.303 26.4714C172.644 26.4308 173.98 26.6517 175.234 27.1215C176.488 27.5913 177.636 28.3007 178.611 29.2089C179.561 30.0858 180.313 31.1511 180.816 32.3348C181.319 33.5185 181.562 34.7937 181.53 36.0767C181.563 37.3571 181.318 38.6297 180.81 39.8085C180.302 40.9873 179.543 42.0448 178.584 42.9095C176.624 44.7171 174.146 45.6194 171.152 45.6165C169.841 45.6557 168.535 45.4365 167.31 44.9717C166.086 44.5069 164.968 43.8058 164.022 42.9095C163.091 42.0397 162.355 40.9865 161.864 39.8184C161.373 38.6502 161.136 37.3932 161.17 36.1291C161.134 34.8403 161.372 33.5584 161.871 32.3664C162.369 31.1743 163.115 30.0986 164.062 29.2089C165.963 27.3839 168.377 26.4714 171.303 26.4714ZM171.414 29.008C170.432 28.9731 169.453 29.1324 168.535 29.4766C167.617 29.8208 166.778 30.3429 166.068 31.012C165.377 31.6746 164.835 32.4719 164.475 33.353C164.115 34.2342 163.946 35.1797 163.978 36.1291C163.952 37.0647 164.126 37.9953 164.488 38.8608C164.849 39.7262 165.391 40.5075 166.077 41.1544C167.519 42.4509 169.403 43.1663 171.355 43.159C173.307 43.1517 175.185 42.4223 176.618 41.1151C177.31 40.4577 177.856 39.6657 178.221 38.7894C178.586 37.913 178.763 36.9714 178.739 36.0243C178.759 35.0926 178.58 34.1672 178.214 33.3077C177.849 32.4482 177.305 31.6736 176.618 31.0339C175.932 30.3708 175.117 29.85 174.224 29.502C173.33 29.1541 172.374 28.9861 171.414 29.008Z" fill="#EDFBFF"/>
<path d="M182.381 26.6984H198.201V29.0735H191.598V45.3895H188.865V29.0735H182.381V26.6984Z" fill="#EDFBFF"/>
</g>
<defs>
<clipPath id="clip0_391_4818">
<rect width="204.902" height="50" fill="white"/>
</clipPath>
</defs>
</svg>
