<svg width="283" height="281" viewBox="0 0 283 281" fill="none" xmlns="http://www.w3.org/2000/svg">
<g filter="url(#filter0_d_391_4866)">
<rect x="20.5" y="20" width="242" height="241" rx="5" fill="#F1F1F1"/>
</g>
<path d="M176.167 244H153.389V221.222H176.167V244ZM153.389 164.278H130.611V221.222H153.389V164.278ZM244.5 141.5H221.722V187.056H244.5V141.5ZM221.722 118.722H198.944V141.5H221.722V118.722ZM85.0556 141.5H62.2778V164.278H85.0556V141.5ZM62.2778 118.722H39.5V141.5H62.2778V118.722ZM142 61.7778H164.778V39H142V61.7778ZM56.5833 56.0833V90.25H90.75V56.0833H56.5833ZM107.833 107.333H39.5V39H107.833V107.333ZM56.5833 192.75V226.917H90.75V192.75H56.5833ZM107.833 244H39.5V175.667H107.833V244ZM193.25 56.0833V90.25H227.417V56.0833H193.25ZM244.5 107.333H176.167V39H244.5V107.333ZM221.722 221.222V187.056H176.167V209.833H198.944V244H244.5V221.222H221.722ZM198.944 141.5H153.389V164.278H198.944V141.5ZM153.389 118.722H85.0556V141.5H107.833V164.278H130.611V141.5H153.389V118.722ZM164.778 107.333V84.5556H142V61.7778H119.222V107.333H164.778ZM82.2083 64.625H65.125V81.7083H82.2083V64.625ZM82.2083 201.292H65.125V218.375H82.2083V201.292ZM218.875 64.625H201.792V81.7083H218.875V64.625Z" fill="#0086FF"/>
<g clip-path="url(#clip0_391_4866)">
<path d="M122.902 152.114C122.902 163.097 131.93 172 142.913 172C153.896 172 162.923 163.097 162.923 152.114C162.923 141.131 153.896 132.227 142.913 132.227C131.93 132.227 122.902 141.131 122.902 152.114Z" fill="#0D1322"/>
<path d="M146 151V139H150.022C151.232 139 152.197 139.308 152.917 139.925C153.277 140.24 153.56 140.625 153.747 141.054C153.933 141.483 154.019 141.945 153.997 142.409C154.01 143.064 153.817 143.709 153.442 144.261C153.081 144.793 152.55 145.203 151.926 145.43C151.038 145.711 150.103 145.835 149.168 145.797H147.824V150.994L146 151ZM149.702 140.525H147.824V144.275H149.811C150.425 144.313 151.033 144.137 151.52 143.782C151.722 143.604 151.88 143.386 151.982 143.144C152.085 142.902 152.129 142.641 152.113 142.381C152.115 141.145 151.311 140.527 149.702 140.525Z" fill="#EDFBFF"/>
<path d="M137.699 145.963L136.348 145.189C135.652 144.824 135.037 144.336 134.539 143.75C134.178 143.271 133.989 142.696 134.002 142.108C133.987 141.687 134.07 141.268 134.245 140.88C134.421 140.493 134.685 140.146 135.018 139.865C135.752 139.272 136.698 138.964 137.664 139.003C138.681 138.998 139.676 139.284 140.516 139.824V141.725C139.621 140.916 138.659 140.511 137.629 140.511C137.121 140.49 136.62 140.623 136.197 140.888C136.021 140.993 135.876 141.139 135.777 141.311C135.677 141.483 135.626 141.677 135.628 141.873C135.634 142.238 135.78 142.588 136.04 142.858C136.425 143.244 136.873 143.57 137.368 143.821L138.724 144.579C140.24 145.43 140.998 146.514 140.998 147.831C141.014 148.258 140.933 148.683 140.761 149.077C140.588 149.472 140.327 149.827 139.996 150.118C139.281 150.723 138.342 151.038 137.382 150.996C136.171 151.001 134.992 150.626 134.031 149.932V147.809C134.999 148.955 136.11 149.528 137.365 149.53C137.87 149.546 138.364 149.39 138.756 149.09C138.931 148.96 139.073 148.793 139.169 148.603C139.265 148.414 139.314 148.206 139.311 147.995C139.326 147.279 138.789 146.601 137.699 145.963Z" fill="#EDFBFF"/>
<path d="M137.47 153.003C138.326 152.976 139.179 153.126 139.98 153.444C140.78 153.763 141.513 154.245 142.135 154.861C142.742 155.456 143.221 156.179 143.543 156.983C143.864 157.786 144.019 158.652 143.998 159.522C144.02 160.391 143.863 161.255 143.539 162.055C143.214 162.855 142.73 163.573 142.118 164.16C140.867 165.387 139.285 165.999 137.374 165.997C136.537 166.024 135.703 165.875 134.922 165.559C134.14 165.244 133.427 164.768 132.823 164.16C132.228 163.569 131.759 162.855 131.446 162.062C131.132 161.269 130.981 160.416 131.002 159.558C130.979 158.683 131.132 157.813 131.45 157.004C131.768 156.195 132.244 155.465 132.848 154.861C134.062 153.623 135.603 153.003 137.47 153.003ZM137.541 154.725C136.915 154.701 136.29 154.809 135.704 155.043C135.118 155.276 134.582 155.631 134.129 156.085C133.688 156.535 133.342 157.076 133.112 157.674C132.882 158.272 132.774 158.914 132.795 159.558C132.779 160.193 132.889 160.824 133.12 161.412C133.351 161.999 133.697 162.53 134.135 162.969C135.055 163.848 136.258 164.334 137.504 164.329C138.75 164.324 139.948 163.829 140.863 162.942C141.305 162.496 141.653 161.958 141.886 161.363C142.119 160.769 142.232 160.13 142.217 159.487C142.229 158.854 142.115 158.226 141.882 157.643C141.649 157.06 141.302 156.534 140.863 156.1C140.425 155.65 139.905 155.296 139.335 155.06C138.764 154.824 138.154 154.71 137.541 154.725Z" fill="#EDFBFF"/>
<path d="M145 153H155V154.525H150.826V165H149.099V154.525H145V153Z" fill="#EDFBFF"/>
</g>
<defs>
<filter id="filter0_d_391_4866" x="0.5" y="0" width="282" height="281" filterUnits="userSpaceOnUse" color-interpolation-filters="sRGB">
<feFlood flood-opacity="0" result="BackgroundImageFix"/>
<feColorMatrix in="SourceAlpha" type="matrix" values="0 0 0 0 0 0 0 0 0 0 0 0 0 0 0 0 0 0 127 0" result="hardAlpha"/>
<feOffset/>
<feGaussianBlur stdDeviation="10"/>
<feComposite in2="hardAlpha" operator="out"/>
<feColorMatrix type="matrix" values="0 0 0 0 0 0 0 0 0 0 0 0 0 0 0 0 0 0 0.05 0"/>
<feBlend mode="normal" in2="BackgroundImageFix" result="effect1_dropShadow_391_4866"/>
<feBlend mode="normal" in="SourceGraphic" in2="effect1_dropShadow_391_4866" result="shape"/>
</filter>
<clipPath id="clip0_391_4866">
<rect width="41" height="40" fill="white" transform="translate(122 132)"/>
</clipPath>
</defs>
</svg>
